M48
METRIC,LZ,000.000
;FILE_FORMAT=3:3
;TYPE=PLATED
;Layer: PTH_Through
;EasyEDA v6.5.48, 2025-04-04 07:46:01
;4687ed6ded954ee48c47ff8f5e5d54f1,b35f8af89abf434ebf5b09c67136b050,10
;Gerber Generator version 0.2
;Holesize 1 = 0.915 mm
T01C0.915
;Holesize 2 = 1.501 mm
T02C1.501
;Holesize 3 = 3.000 mm
T03C3.000
%
G05
G90
T01
X045120Y109130
X045120Y106590
X045120Y104050
X045120Y101510
X045120Y098970
X045120Y096430
X045120Y093890
X045120Y091350
X045120Y088810
X045120Y086270
X045120Y083730
X045120Y081190
X045120Y078650
X045120Y076110
X045120Y073570
X045120Y071030
X045120Y068490
X045120Y065950
X045120Y063410
X045120Y060870
X029880Y060870
X029880Y063410
X029880Y065950
X029880Y068490
X029880Y071030
X029880Y073570
X029880Y076110
X029880Y078650
X029880Y081190
X029880Y083730
X029880Y086270
X029880Y088810
X029880Y091350
X029880Y093890
X029880Y096430
X029880Y098970
X029880Y101510
X029880Y104050
X029880Y106590
X029880Y109130
T02
X032540Y020080
X026190Y017540
X087540Y020080
X081190Y017540
X015039Y047579
X008689Y045039
X045039Y047579
X038689Y045039
X075039Y047579
X068689Y045039
X105039Y047579
X098689Y045039
X060040Y095080
X053690Y092540
T03
X100000Y057500
X015000Y057500
X097500Y105000
X017500Y105000
X007500Y007500
X107500Y007500
M30
