G04 Layer: TopSolderMaskLayer*
G04 EasyEDA v6.5.48, 2025-04-04 07:46:01*
G04 4687ed6ded954ee48c47ff8f5e5d54f1,b35f8af89abf434ebf5b09c67136b050,10*
G04 Gerber Generator version 0.2*
G04 Scale: 100 percent, Rotated: No, Reflected: No *
G04 Dimensions in millimeters *
G04 leading zeros omitted , absolute positions ,4 integer and 5 decimal *
%FSLAX45Y45*%
%MOMM*%

%ADD10C,1.7272*%
%ADD11C,3.2032*%
%ADD12C,5.2032*%

%LPD*%
D10*
G01*
X4512005Y10912957D03*
G01*
X4512005Y10658957D03*
G01*
X4512005Y10404957D03*
G01*
X4512005Y10150957D03*
G01*
X4512005Y9896957D03*
G01*
X4512005Y9642957D03*
G01*
X4512005Y9388957D03*
G01*
X4512005Y9134957D03*
G01*
X4512005Y8880957D03*
G01*
X4512005Y8626957D03*
G01*
X4512005Y8372957D03*
G01*
X4512005Y8118957D03*
G01*
X4512005Y7864957D03*
G01*
X4512005Y7610957D03*
G01*
X4512005Y7356957D03*
G01*
X4512005Y7102957D03*
G01*
X4512005Y6848957D03*
G01*
X4512005Y6594957D03*
G01*
X4512005Y6340957D03*
G01*
X4512005Y6086957D03*
G01*
X2988005Y6086957D03*
G01*
X2988005Y6340957D03*
G01*
X2988005Y6594957D03*
G01*
X2988005Y6848957D03*
G01*
X2988005Y7102957D03*
G01*
X2988005Y7356957D03*
G01*
X2988005Y7610957D03*
G01*
X2988005Y7864957D03*
G01*
X2988005Y8118957D03*
G01*
X2988005Y8372957D03*
G01*
X2988005Y8626957D03*
G01*
X2988005Y8880957D03*
G01*
X2988005Y9134957D03*
G01*
X2988005Y9388957D03*
G01*
X2988005Y9642957D03*
G01*
X2988005Y9896957D03*
G01*
X2988005Y10150957D03*
G01*
X2988005Y10404957D03*
G01*
X2988005Y10658957D03*
G01*
X2988005Y10912957D03*
D11*
G01*
X3253993Y2007996D03*
G01*
X2618993Y1753996D03*
G01*
X8753983Y2007996D03*
G01*
X8118983Y1753996D03*
G01*
X1503934Y4757928D03*
G01*
X868934Y4503928D03*
G01*
X4503927Y4757928D03*
G01*
X3868927Y4503928D03*
G01*
X7503922Y4757928D03*
G01*
X6868922Y4503928D03*
G01*
X10503915Y4757928D03*
G01*
X9868915Y4503928D03*
G01*
X6004001Y9507956D03*
G01*
X5369001Y9253956D03*
D12*
G01*
X9999979Y5749975D03*
G01*
X1499996Y5749975D03*
G01*
X9749993Y10499979D03*
G01*
X1750009Y10499979D03*
G01*
X750011Y749985D03*
G01*
X10749991Y749985D03*
M02*
