G04 Layer: BottomLayer*
G04 EasyEDA v6.5.48, 2025-04-04 07:46:01*
G04 4687ed6ded954ee48c47ff8f5e5d54f1,b35f8af89abf434ebf5b09c67136b050,10*
G04 Gerber Generator version 0.2*
G04 Scale: 100 percent, Rotated: No, Reflected: No *
G04 Dimensions in millimeters *
G04 leading zeros omitted , absolute positions ,4 integer and 5 decimal *
%FSLAX45Y45*%
%MOMM*%

%ADD10C,1.0000*%
%ADD11O,3.9999919999999998X1.9999959999999999*%
%ADD12C,1.5240*%
%ADD13C,3.0000*%
%ADD14C,5.0000*%

%LPD*%
D10*
X8119109Y1753870D02*
G01*
X7364984Y999997D01*
X2899918Y999997D01*
X2618993Y1280921D01*
X2618993Y1753870D01*
X3868927Y4503928D02*
G01*
X3649992Y4499990D01*
X3649979Y4249928D01*
X4100068Y3800094D01*
X6165088Y3800094D01*
X6868922Y4503928D01*
X7503922Y4757928D02*
G01*
X7700009Y4561839D01*
X7700009Y3999992D01*
X7249922Y3549904D01*
X3999991Y3549904D01*
X3427222Y4122673D01*
X3427222Y7425689D01*
X2988056Y7864855D01*
X10503915Y4757928D02*
G01*
X10750041Y4511802D01*
X10750041Y3949954D01*
X10100056Y3299968D01*
X3949954Y3299968D01*
X3199891Y4050029D01*
X3199891Y7399020D01*
X2988056Y7610855D01*
X8119109Y1753870D02*
G01*
X8119109Y2019045D01*
X8800084Y2700020D01*
X9999979Y2700020D01*
X10999977Y3700018D01*
X10999977Y4899913D01*
X10599927Y5299963D01*
X9643872Y5299963D01*
X9358375Y5014468D01*
X5369001Y9253956D02*
G01*
X5369001Y8730970D01*
X5799988Y8299983D01*
X6599986Y8299983D01*
X7299985Y7599984D01*
X7299985Y5588561D01*
X6868919Y5157495D01*
X5685457Y6340957D02*
G01*
X6868919Y5157495D01*
X6868919Y5014518D01*
X5685457Y6340957D02*
G01*
X4512002Y6340957D01*
X5899985Y6555486D02*
G01*
X5685457Y6340957D01*
X8754109Y2007870D02*
G01*
X10008108Y2007870D01*
X11249913Y3249929D01*
X11249913Y5245354D01*
X6726681Y9768586D01*
X4637786Y9768586D01*
X4512056Y9642855D01*
X2049980Y9957180D02*
G01*
X2049980Y9974935D01*
X2988002Y10912957D01*
X2049980Y9652380D02*
G01*
X2143782Y9652380D01*
X2560368Y10068966D01*
X2560368Y10231323D01*
X2988002Y10658957D01*
X2049980Y9347580D02*
G01*
X2775379Y9347580D01*
X2988002Y9134957D01*
X2049980Y9055480D02*
G01*
X2813479Y9055480D01*
X2988002Y8880957D01*
X1503931Y4757928D02*
G01*
X2281552Y5535548D01*
X2281552Y7920507D01*
X2988002Y8626957D01*
X3253991Y2007996D02*
G01*
X2807230Y2454757D01*
X2807230Y8192185D01*
X2988002Y8372957D01*
X4503925Y4757928D02*
G01*
X3734178Y5527675D01*
X3734178Y7372781D01*
X2988002Y8118957D01*
X6868919Y5014518D02*
G01*
X6868919Y4503928D01*
X868931Y4503928D02*
G01*
X868931Y3504056D01*
X2618991Y1753996D01*
X9868913Y4503928D02*
G01*
X9358322Y5014518D01*
X6868919Y5014518D01*
X5899985Y6847586D02*
G01*
X4764631Y6847586D01*
X4512002Y6594957D01*
X5899985Y7152386D02*
G01*
X4716574Y7152386D01*
X4512002Y7356957D01*
X5899985Y7457186D02*
G01*
X5746214Y7610957D01*
X4512002Y7610957D01*
X6003998Y9507956D02*
G01*
X4631001Y9507956D01*
X4512002Y9388957D01*
D11*
G01*
X2049983Y9055480D03*
G01*
X2049983Y9347580D03*
G01*
X2049983Y9652380D03*
G01*
X2049983Y9957180D03*
G01*
X5899988Y6555486D03*
G01*
X5899988Y6847586D03*
G01*
X5899988Y7152386D03*
G01*
X5899988Y7457186D03*
D12*
G01*
X4512005Y10912957D03*
G01*
X4512005Y10658957D03*
G01*
X4512005Y10404957D03*
G01*
X4512005Y10150957D03*
G01*
X4512005Y9896957D03*
G01*
X4512005Y9642957D03*
G01*
X4512005Y9388957D03*
G01*
X4512005Y9134957D03*
G01*
X4512005Y8880957D03*
G01*
X4512005Y8626957D03*
G01*
X4512005Y8372957D03*
G01*
X4512005Y8118957D03*
G01*
X4512005Y7864957D03*
G01*
X4512005Y7610957D03*
G01*
X4512005Y7356957D03*
G01*
X4512005Y7102957D03*
G01*
X4512005Y6848957D03*
G01*
X4512005Y6594957D03*
G01*
X4512005Y6340957D03*
G01*
X4512005Y6086957D03*
G01*
X2988005Y6086957D03*
G01*
X2988005Y6340957D03*
G01*
X2988005Y6594957D03*
G01*
X2988005Y6848957D03*
G01*
X2988005Y7102957D03*
G01*
X2988005Y7356957D03*
G01*
X2988005Y7610957D03*
G01*
X2988005Y7864957D03*
G01*
X2988005Y8118957D03*
G01*
X2988005Y8372957D03*
G01*
X2988005Y8626957D03*
G01*
X2988005Y8880957D03*
G01*
X2988005Y9134957D03*
G01*
X2988005Y9388957D03*
G01*
X2988005Y9642957D03*
G01*
X2988005Y9896957D03*
G01*
X2988005Y10150957D03*
G01*
X2988005Y10404957D03*
G01*
X2988005Y10658957D03*
G01*
X2988005Y10912957D03*
D13*
G01*
X3253993Y2007996D03*
G01*
X2618993Y1753996D03*
G01*
X8753983Y2007996D03*
G01*
X8118983Y1753996D03*
G01*
X1503934Y4757928D03*
G01*
X868934Y4503928D03*
G01*
X4503927Y4757928D03*
G01*
X3868927Y4503928D03*
G01*
X7503922Y4757928D03*
G01*
X6868922Y4503928D03*
G01*
X10503915Y4757928D03*
G01*
X9868915Y4503928D03*
G01*
X6004001Y9507956D03*
G01*
X5369001Y9253956D03*
D14*
G01*
X9999979Y5749975D03*
G01*
X1499996Y5749975D03*
G01*
X9749993Y10499979D03*
G01*
X1750009Y10499979D03*
G01*
X750011Y749985D03*
G01*
X10749991Y749985D03*
M02*
