G04 Layer: TopSilkscreenLayer*
G04 EasyEDA v6.5.48, 2025-04-04 07:46:01*
G04 4687ed6ded954ee48c47ff8f5e5d54f1,b35f8af89abf434ebf5b09c67136b050,10*
G04 Gerber Generator version 0.2*
G04 Scale: 100 percent, Rotated: No, Reflected: No *
G04 Dimensions in millimeters *
G04 leading zeros omitted , absolute positions ,4 integer and 5 decimal *
%FSLAX45Y45*%
%MOMM*%

%ADD10C,0.2540*%

%LPD*%
D10*
X2299992Y2299997D02*
G01*
X3699995Y2299997D01*
X2199993Y2199998D02*
G01*
X2199993Y799995D01*
X3699995Y699996D02*
G01*
X2299992Y699996D01*
X3799994Y2199998D02*
G01*
X3799994Y799995D01*
X7799981Y2299997D02*
G01*
X9199984Y2299997D01*
X7699982Y2199998D02*
G01*
X7699982Y799995D01*
X9199984Y699996D02*
G01*
X7799981Y699996D01*
X9299983Y2199998D02*
G01*
X9299983Y799995D01*
X549932Y5049928D02*
G01*
X1949935Y5049928D01*
X449933Y4949929D02*
G01*
X449933Y3549926D01*
X1949935Y3449927D02*
G01*
X549932Y3449927D01*
X2049934Y4949929D02*
G01*
X2049934Y3549926D01*
X3549926Y5049928D02*
G01*
X4949929Y5049928D01*
X3449927Y4949929D02*
G01*
X3449927Y3549926D01*
X4949929Y3449927D02*
G01*
X3549926Y3449927D01*
X5049928Y4949929D02*
G01*
X5049928Y3549926D01*
X6549920Y5049928D02*
G01*
X7949923Y5049928D01*
X6449921Y4949929D02*
G01*
X6449921Y3549926D01*
X7949923Y3449927D02*
G01*
X6549920Y3449927D01*
X8049922Y4949929D02*
G01*
X8049922Y3549926D01*
X9549914Y5049928D02*
G01*
X10949917Y5049928D01*
X9449915Y4949929D02*
G01*
X9449915Y3549926D01*
X10949917Y3449927D02*
G01*
X9549914Y3449927D01*
X11049916Y4949929D02*
G01*
X11049916Y3549926D01*
X5049987Y9799982D02*
G01*
X6449989Y9799982D01*
X4949987Y9699983D02*
G01*
X4949987Y8299980D01*
X6449989Y8199981D02*
G01*
X5049987Y8199981D01*
X6549989Y9699983D02*
G01*
X6549989Y8299980D01*
G75*
G01*
X2299993Y2299998D02*
G03*
X2199993Y2199998I0J-100000D01*
G75*
G01*
X3799995Y2199998D02*
G03*
X3699995Y2299998I-100000J0D01*
G75*
G01*
X2199993Y799996D02*
G03*
X2299993Y699996I100000J0D01*
G75*
G01*
X3699995Y699996D02*
G03*
X3799995Y799996I0J100000D01*
G75*
G01*
X7799982Y2299998D02*
G03*
X7699982Y2199998I0J-100000D01*
G75*
G01*
X9299984Y2199998D02*
G03*
X9199984Y2299998I-100000J0D01*
G75*
G01*
X7699982Y799996D02*
G03*
X7799982Y699996I100000J0D01*
G75*
G01*
X9199984Y699996D02*
G03*
X9299984Y799996I0J100000D01*
G75*
G01*
X549933Y5049929D02*
G03*
X449933Y4949929I0J-100000D01*
G75*
G01*
X2049935Y4949929D02*
G03*
X1949935Y5049929I-100000J0D01*
G75*
G01*
X449933Y3549927D02*
G03*
X549933Y3449927I100000J0D01*
G75*
G01*
X1949935Y3449927D02*
G03*
X2049935Y3549927I0J100000D01*
G75*
G01*
X3549927Y5049929D02*
G03*
X3449927Y4949929I0J-100000D01*
G75*
G01*
X5049929Y4949929D02*
G03*
X4949929Y5049929I-100000J0D01*
G75*
G01*
X3449927Y3549927D02*
G03*
X3549927Y3449927I100000J0D01*
G75*
G01*
X4949929Y3449927D02*
G03*
X5049929Y3549927I0J100000D01*
G75*
G01*
X6549921Y5049929D02*
G03*
X6449921Y4949929I0J-100000D01*
G75*
G01*
X8049923Y4949929D02*
G03*
X7949923Y5049929I-100000J0D01*
G75*
G01*
X6449921Y3549927D02*
G03*
X6549921Y3449927I100000J0D01*
G75*
G01*
X7949923Y3449927D02*
G03*
X8049923Y3549927I0J100000D01*
G75*
G01*
X9549915Y5049929D02*
G03*
X9449915Y4949929I0J-100000D01*
G75*
G01*
X11049917Y4949929D02*
G03*
X10949917Y5049929I-100000J0D01*
G75*
G01*
X9449915Y3549927D02*
G03*
X9549915Y3449927I100000J0D01*
G75*
G01*
X10949917Y3449927D02*
G03*
X11049917Y3549927I0J100000D01*
G75*
G01*
X5049987Y9799983D02*
G03*
X4949988Y9699983I0J-100000D01*
G75*
G01*
X6549989Y9699983D02*
G03*
X6449990Y9799983I-99999J0D01*
G75*
G01*
X4949988Y8299981D02*
G03*
X5049987Y8199981I99999J0D01*
G75*
G01*
X6449990Y8199981D02*
G03*
X6549989Y8299981I0J100000D01*
M02*
